<svg viewBox="0 0 17 16" fill="none" xmlns="http://www.w3.org/2000/svg">
    <path fill-rule="evenodd" clip-rule="evenodd" d="M11.483 1.59188C10.9035 1.59188 10.3478 1.80275 9.93809 2.1781L3.25038 8.30477C2.56755 8.9303 2.18395 9.77872 2.18395 10.6634C2.18395 11.548 2.56755 12.3964 3.25038 13.022C3.9332 13.6475 4.8593 13.9989 5.82496 13.9989C6.79062 13.9989 7.71672 13.6475 8.39954 13.022L15.0873 6.89529C15.3715 6.63494 15.8322 6.63494 16.1164 6.89529C16.4006 7.15564 16.4006 7.57775 16.1164 7.8381L9.42869 13.9648C8.47292 14.8404 7.17662 15.3323 5.82496 15.3323C4.4733 15.3323 3.177 14.8404 2.22123 13.9648C1.26546 13.0892 0.728516 11.9016 0.728516 10.6634C0.728516 9.42509 1.26546 8.23754 2.22123 7.36196L8.90895 1.23529C9.59162 0.609891 10.5175 0.258545 11.483 0.258545C12.4484 0.258545 13.3743 0.60989 14.057 1.23529C14.7396 1.86069 15.1232 2.70891 15.1232 3.59336C15.1232 4.47781 14.7396 5.32603 14.057 5.95143L7.36198 12.0781C6.9524 12.4533 6.39691 12.6641 5.81768 12.6641C5.23846 12.6641 4.68296 12.4533 4.27339 12.0781C3.86382 11.7029 3.63372 11.194 3.63372 10.6634C3.63372 10.1327 3.86382 9.62384 4.27339 9.24862L10.452 3.59501C10.7364 3.33482 11.1971 3.33506 11.4812 3.59557C11.7652 3.85607 11.7649 4.27818 11.4805 4.53838L5.30254 10.1914C5.1661 10.3166 5.08916 10.4865 5.08916 10.6634C5.08916 10.8404 5.16591 11.0101 5.30254 11.1353C5.43916 11.2605 5.62447 11.3308 5.81768 11.3308C6.0109 11.3308 6.1962 11.2605 6.33283 11.1353L13.0278 5.00862C13.4374 4.6333 13.6677 4.12407 13.6677 3.59336C13.6677 3.06253 13.4375 2.55345 13.0278 2.1781C12.6181 1.80275 12.0624 1.59188 11.483 1.59188Z" fill="#959595"/>
</svg>
