<svg xmlns="http://www.w3.org/2000/svg" viewBox="0 0 82.86 55.83"><defs><style>.cls-1{fill:none;stroke:#231f20;stroke-linecap:round;stroke-linejoin:round;stroke-width:0.83px;}</style></defs><g id="Layer_2" data-name="Layer 2"><g id="Layer_1-2" data-name="Layer 1"><path class="cls-1" d="M.41,47.45s-.07-5.78,1.05-6.13c2.71-.84,3.73,4.18,4.39,5.88l2.21,5.69a4.22,4.22,0,0,0,1.43,2.17c1,.65,2.4.27,3.57-.13q10.23-3.49,20.41-7.1l12-4.22a.56.56,0,0,1,.6.14l5.39,5.55c1.33,1.09,2.65.06,3.92-.63s9.06-3.86,21.28-4.25c5.88-.54,6-.93,5.78-1.3s-2.63-.66-7.31-.3-15.54,2.66-19.89,4.62c-3,1-4.25-.4-4.25-.4-2.16-2.26-2.25-2.76-2.22-3.82s.63-.33,1,.13,2.13,2.89,3.52,2.93c2,0,4.2-.8,6-1.35s3.61-1.15,5.41-1.76a38.28,38.28,0,0,1,11-2c.88,0,1.76,0,2.64,0a2.38,2.38,0,0,0,1.88-.62,1.89,1.89,0,0,0-.07-2.28.53.53,0,0,0-.13-.13c-.44-.27-1.09.61-1.37.84a3.9,3.9,0,0,1-2.15.9c-1.89.13-11.42,1.3-16.5,3s-6.27,2.26-6.71,1.46,2.63-1.76,5.22-2.39,5.16-1.13,7.73-1.74a68.42,68.42,0,0,0,9.34-2.61,8.13,8.13,0,0,0,3.4-2.45c.19-.24.29-.62-.12-.62s-.75.41-1,.58c-3.44,2.26-7.55,3.23-11.6,3.93s-8.18,1.17-12,2.58c-1.08.4-2.14.87-3.26,1.18a.46.46,0,0,1-.38-.05.34.34,0,0,1-.09-.44,2.27,2.27,0,0,1,1.2-1A68,68,0,0,1,66,36c1.13-.28,2.27-.57,3.41-.82,2.75-.59,5.61-.79,8.32-1.53a1,1,0,0,0,.3-.13c.72-.55-1.2-1.26-1.53-1.42-.72-.35-1.47-.65-2.19-1L70.11,29l-1.8-.87c-2.13-.7-2.76,0-2.76,0L51.2,41.62"/><path class="cls-1" d="M50.64,39.79s18.2-17.95,22.65-20.28c.6-.2.5-.91.17-1.31s-1.58-2.06-1.58-2.06c-.4-.35-.85.12-.85.12s-4.91,3.12-12.62,12.82-7.3,11-8,10.69c-.22-.09-.1-.92-.09-1.09A3.13,3.13,0,0,1,50.84,37c1.09-1.57,2.27-3.08,3.44-4.59,1.41-1.84,2.84-3.67,4.27-5.5L63,21.23c1.21-1.54,2.43-3.07,3.65-4.61l1.78-2.24,0-.05c1.19-1.46.66-1.62,0-1.9s-2.26-.92-2.73-1.19-1.17.37-1.17.37S52.94,26.07,51.39,34.82c0,0,4.73-17.93,5-22.66.16-2.45.19-3.76.19-4.46a1.16,1.16,0,0,0-.7-1.07A105.27,105.27,0,0,0,38.14.55c-3.28-.6-3,.85-3,2V5"/><path class="cls-1" d="M43.8,42s-29.51,11.43-31.36,12-2.49.14-2.94-.6S4.17,39.6,2.88,37.31c-.75-1.39.1-1.44.6-1.64S10.2,34,10.2,33.82"/><path class="cls-1" d="M48.85,39.3s2.39-22.41-7.62-31"/><path class="cls-1" d="M13.44,36.11c1.89,1.52,3.87,3,5.89,4.28,1.15.75,2.33,1.47,3.54,2.11s3.48,1.92,5,1.21a3.8,3.8,0,0,0,1-.81,19.69,19.69,0,0,1,4.05-3,10,10,0,0,1,4.14-1.56,6.7,6.7,0,0,1,3.61,1,27.85,27.85,0,0,1,2.42,1.42c.44.29.87.58,1.32.86a.28.28,0,0,0,.27.07c.39-.2-.38-1.4-.52-1.61A6.75,6.75,0,0,0,41.87,38a12,12,0,0,0-4.79-1.51,8.37,8.37,0,0,0-4.43,1,18,18,0,0,0-5.41,3.9,2.75,2.75,0,0,1-1.35,1c-.69.13.33-1,.45-1.15a19.18,19.18,0,0,1,2-2.22,16.48,16.48,0,0,1,7.7-4.22c6.15-.9,9.61,5.33,9.61,5.33"/><path class="cls-1" d="M46.51,36.36A1.74,1.74,0,0,1,47,38.2c-.28.58-.54.37-.81-.08a15.27,15.27,0,0,0-2.42-3.18,14.37,14.37,0,0,0-3.3-2.38,15.17,15.17,0,0,0-2.39-1,10.76,10.76,0,0,0-7.6.71,11.07,11.07,0,0,0-3.75,2.54,6.33,6.33,0,0,0-1.38,4.58,25,25,0,0,0,.08,3.07c-.3,0-6.22-6.37-14.69-8.66-.09,0-.25-.32-.3-.38l-.79-1L7.79,30a1.37,1.37,0,0,1-.34-.68c0-.55.54-.9,1-1.12,4.17-1.81,8.47-3.64,13-3.79a37,37,0,0,1,7.33.74,1.53,1.53,0,0,0,1-.06A2.71,2.71,0,0,0,28,23.52a7.42,7.42,0,0,0-2.4-.21,56.77,56.77,0,0,0-13,1.78A18.38,18.38,0,0,0,8.2,26.77a6.78,6.78,0,0,0-1.77,1.37.73.73,0,0,0-.19.43c0,.61,1,.88,1.47,1,2.1.68,4.12,1.61,6.17,2.43a46.82,46.82,0,0,0,5,1.69,9.65,9.65,0,0,0,2.49.44,5.16,5.16,0,0,0,2.4-.78,30.21,30.21,0,0,1,6.6-2.3,27.19,27.19,0,0,1,6.53-.9,10.43,10.43,0,0,1,4.52.85A12.27,12.27,0,0,1,45.86,34c.24.3.63,1.33,1,1.36s.58-.62.56-1c-.05-.94-1.22-11.95-3.66-17.2-1.52-5.05-3-8.17-3-8.55s.47-.25.47-.25S27.33,2.92,24.52,3c-2.17-.45-1.69.4-.85,2s6.19,9.41,6.62,12.93-.53,6.6.7,7.7,9.17,4.68,9.78,5.17"/></g></g></svg>