<svg xmlns="http://www.w3.org/2000/svg" viewBox="0 0 46.38 56.02"><defs><style>.cls-1{fill:none;stroke:#231f20;stroke-linecap:round;stroke-linejoin:round;stroke-width:1.02px;}</style></defs><g id="Layer_2" data-name="Layer 2"><g id="Layer_1-2" data-name="Layer 1"><path class="cls-1" d="M19.31,14.21a3.83,3.83,0,0,0,.3,2.1,3.46,3.46,0,0,0,2.26,2,3.12,3.12,0,0,0,2.91-.77c1.42-1.48.61-4.34-.9-5.22-.57-.34-1.67-.65-2.22-.09a1.22,1.22,0,0,0-.3,1.24c.29.73,1.51,1,2.31.73,1.09-.34,1.39-1.6,2.27-3.85A28.25,28.25,0,0,1,29,4.2C29.76,3.13,31.44.67,33.64.52A2,2,0,0,1,35.3,1a1.85,1.85,0,0,1,.26,1.5c-.27,1.63-1.72,2.68-3.81,4.58-3.48,3.15-4,4.33-4.15,5.3a3.91,3.91,0,0,0,.22,2.35c1.28,2.55,6.3,1.91,7.57,1.76,1.71-.21,3.71-.46,4.92-2.06a5.66,5.66,0,0,0,.94-3c.27-2.1-.28-3.62-1.37-6.67a3.6,3.6,0,0,0-1.45-2,1.1,1.1,0,0,0-.86-.17,1.16,1.16,0,0,0-.68.72c0,1.73.06,3.14.13,4.11.18,2.73.46,3.79,0,5.26a7,7,0,0,1-1.67,2.74c-2.27,1.45-8.43,2.1-9.71,2.78s2.44.39,2.44.39,13.81-.77,15.87-.47a2.11,2.11,0,0,1,1.92,2.22,56.79,56.79,0,0,1-.26,6c-.17.77.17,1.58-1.07,1.75a122.69,122.69,0,0,1-16.12.39c-1.24,0-1.29.51.64.51s9.54.21,11.42,0,2.39-.42,2.73,0c0,0,.22-.35.22.85s.22,23.83.22,23.83a1.45,1.45,0,0,1-1.33,1.41s-35.38.64-38.2.21a1.59,1.59,0,0,1-1.2-1.67V29.31C3,28.37,5,28.84,5,28.84s4.57.09,5-.3S2.07,28.42,1.25,28a1.76,1.76,0,0,1-.72-1.87c0-.47-.09-6.2.42-7.31a.76.76,0,0,1,.65-.47l13.39,0c.51,0,.25.21-.09.47s-6.46,5-7.1,5c-.13.13-.17.39.13.43A31.26,31.26,0,0,1,12.5,28.2a13.81,13.81,0,0,0,2.83,2.52s.3-.3,1.5-4.58,2.76-6.5,2.9-7.91c.09-.51-.47-.56-.89-.56A104.13,104.13,0,0,1,6.69,17c-3-1-3.85-1.11-4.71-3.47-.21-1.28.77-2.82,1.54-3.76A92.06,92.06,0,0,0,9,1.59c.64-1.37.94-.64,1.24-.3A12.54,12.54,0,0,0,13.66,4.5c1.88,1.07,3.93,2.22,4.62,4.88s1.07,3.55.56,3.93S14.22,11.47,12.55,9s-1.76-2.53-1.8-2.31,3.08,7.1,5.22,8a4.61,4.61,0,0,0,3.31.34"/><path class="cls-1" d="M25.41,19.44s0-.29.55,0,2.15,3.4,2.24,5.71.9,2.44,1.45,2.44,1.47,0,3.78-3,4.43-1.73,5.07-2-.29-.84-.29-.84-4.84-3.48-9.3-3.05"/></g></g></svg>