<svg xmlns="http://www.w3.org/2000/svg" viewBox="0 0 41.97 55.97"><defs><style>.cls-1{fill:none;stroke:#231f20;stroke-linecap:round;stroke-linejoin:round;stroke-width:0.97px;}</style></defs><g id="Layer_2" data-name="Layer 2"><g id="Layer_1-2" data-name="Layer 1"><path class="cls-1" d="M25.26,53.67a6,6,0,0,1-1.29,1c-3.33,1.9-7.4,0-8.17-.37a1.59,1.59,0,0,1-.74-1.16,1.85,1.85,0,0,1,2-1.6C21,51.24,24,51,25.45,51a5.39,5.39,0,0,0,1.29-.25c.43-.14,2.17-.75,2.21-1.78a1.43,1.43,0,0,0-.63-1.14c-.48-.58-3.12-.4-3.12-.4S15,47.58,11.49,46.11c-2-1.35-1-2.52,0-2.89s14.08-.49,17.83-1,4.42-1.11,3.87-2.09-.8-1.54-3.93-2a11.47,11.47,0,0,1-4-1.05c-.84-.51-1.87-1.58-2.4-4.13a15.1,15.1,0,0,1,.35-3.55A9.76,9.76,0,0,1,26,23.8c.7-.62,2-1.79,3.67-1.49.92.16,2.08.82,2.24,1.68.3,1.61-3,3.61-5.48,4.48-6.59,2.33-15.07-.7-15.61-4a2.7,2.7,0,0,1,.78-2.42c1-.78,2.52-.21,2.84-.1,2.29.84,3.23,3.32,3.51,4.06a10,10,0,0,1-.49,7.62c-.54,1.09-1.84,3.74-4.37,4.37-3.55.88-7-2.84-8-4C-.34,28.16.47,20,.61,18.76A21.17,21.17,0,0,1,8.48,4.62c7.81-6,16.83-3.8,18.2-3.44S35,3.35,38.85,9.72c4.34,7.11,3.25,17.09-2.83,24.9"/></g></g></svg>