<svg xmlns="http://www.w3.org/2000/svg" viewBox="0 0 63.62 56.29"><defs><style>.cls-1{fill:none;stroke:#231f20;stroke-linecap:round;stroke-linejoin:round;stroke-width:1.29px;}</style></defs><g id="Layer_2" data-name="Layer 2"><g id="Layer_1-2" data-name="Layer 1"><path class="cls-1" d="M.69,15.43s-.32.77.71,1.74S28.64,55,28.64,55,18.46,21.92,17.81,20s-1.66-4.29.08-4.54c1.85-.8,11.65,37.46,12.22,38s.89-.33,1.3-2.28S42.17,18.26,43.8,15.81c2.21-.61.7,3.3-.28,5.42s-3.42,9.2-4.07,11.4-4.16,11.82-5.22,15.16-2.77,6.6-2.36,7.74,4.31-6.47,6.51-9.53,18.94-24.32,22-27.74,2.56-3.91,2.56-4.28-2.81.61-5,.61l-5.4,0L41,14.67H26.65c-4.53,0-9.06-.05-13.59-.12-3.14-.05-6.3-.09-9.43-.3-.65,0-1.29-.11-1.93-.2-1.5-.2,1.14-3.22,1.45-3.61,1.2-1.55,2.33-3.15,3.49-4.73a15.46,15.46,0,0,1,3.7-4c.1-.07.23-.14.34-.07s.11.15.13.25c.55,3,2.82,5.78,4.4,8.36.24.4,1.28,2.64,1.9,2.54s-3.06-7.84-3.92-9.43-.61-1.47-.12-1.64,13.84-.18,14.49-.4.83.55-.37,1.42-8.35,9-7.87,10.44c.33.76,2.05-.89,2.43-1.27S30,1.26,30.61,1.26s1,1.57,3,4.51,6.23,7.35,7.2,7.35S40,11,39.37,10.17s-4.57-5-5.44-6.56S32.84,1.36,33.87.85,48.44.93,49.8.88s.87.49.11,1.19S44.15,10.38,44,12.39s1.76-.3,1.76-.3S51.23,3,51.83,2.15s.68-.13.85.3,8.85,10.49,8.85,10.49"/></g></g></svg>