<svg xmlns="http://www.w3.org/2000/svg" viewBox="0 0 34.06 55.77"><defs><style>.cls-1{fill:none;stroke:#231f20;stroke-linecap:round;stroke-linejoin:round;stroke-width:0.77px;}</style></defs><g id="Layer_2" data-name="Layer 2"><g id="Layer_1-2" data-name="Layer 1"><path class="cls-1" d="M33.56,19A3.32,3.32,0,0,0,32.36,18a3.66,3.66,0,0,0-3.73.42,3.37,3.37,0,0,0-1.29,2.05,1.76,1.76,0,0,0,.73,1.94l.76-1.81a3.57,3.57,0,0,1,1.31-1.85,2.32,2.32,0,0,1,2.92.86,4.6,4.6,0,0,1,.55,3.22,5.92,5.92,0,0,1-2.44,4.26,3.49,3.49,0,0,1-4.55-.64,1.48,1.48,0,0,0,1.06,1.5,4.31,4.31,0,0,0,2,0,21.68,21.68,0,0,0,.67,8.7.67.67,0,0,1,0,.52.65.65,0,0,1-.26.23c-1.11.65-2.39,1-3.52,1.56a10.88,10.88,0,0,0-3.21,2.76c-3.23,3.85-4.92,8.75-6,13.65A26.54,26.54,0,0,0,12,39.85c-.21-.28-.45-.64-.31-1a1,1,0,0,1,.66-.48l5.78-2.1a12.47,12.47,0,0,0,4.24-2.18A9.18,9.18,0,0,0,25,27.91,19,19,0,0,0,21.55,16c-2.49-3.67-6.3-5.94-10.73-4.18a4,4,0,0,1-1.11.35c-.72.06-1.32-.46-.93-1.18a3.67,3.67,0,0,1,.64-.72"/><path class="cls-1" d="M30.84,4A22.71,22.71,0,0,0,22.09.76c-2.43-.37-7.73-1.18-12.9,2C7.92,3.5,2.68,6.6,1.75,12.57a12.66,12.66,0,0,0,.66,6.2,4.16,4.16,0,0,1-.8,2.7C-.51,24.82.73,26.06.88,27.08s1.46,5.69.94,9c-.36,1.61,1.39,3.43,3.87,3.28s10.5-2.33,13.2-5.17,2.18-6.79-.73-8.46-7.91-5-9.53-4.3c-.83.29-.06,1,.27,1.75s.29,1.49-.46,1.49a1.84,1.84,0,0,1-1.71-1.2c-.26-.71-1.2-.71-1.3,0a1.58,1.58,0,0,1-2.63.85c-1.39-1.07.26-2.85.75-3.15s3.24-3,3.6-5,0-3.92-1.36-3.92-2.68,1.1-3.41,1.07.78-1.07.78-1.07"/></g></g></svg>