<svg xmlns="http://www.w3.org/2000/svg" viewBox="0 0 43.85 55.86"><defs><style>.cls-1{fill:none;stroke:#231f20;stroke-linecap:round;stroke-linejoin:round;stroke-width:0.86px;}</style></defs><g id="Layer_2" data-name="Layer 2"><g id="Layer_1-2" data-name="Layer 1"><path class="cls-1" d="M38.13,11.7c-.08-1.67.28-7.36.28-7.36-.08-2.93.33-3.91-2.93-3.91-5.86.41-33,10-33,10a2.5,2.5,0,0,0-2,2.12c-.14,1.53,0,28.59.06,37.77v2.9c.1,2.76,2.31,2.14,2.31,2.14l38.41.06c2.07,0,1.72-2.52,1.72-2.52l.12-2.58c0-.79,0-1.74.12-2.88.49-6.05-.09-18.61,0-26.1s-1.38-9.2-5.37-9.69-35.65.65-35.65.65c.73,5.62,10.23,35.14,10.23,35.14-.19-.33-.84-4.34-.84-4.34s-.46-4.26.49-4.43c.65-.13,2.79,4.1,3.42,5.11s2.3,1.89,2.76.35c.95-3.42-.08-5.08-.4-5.32s-.76,0-.49,1.47c.59,2.6,2.09,3.58,3.71,2.33,2.88-3.31-1.46-14-1-12.26.87,4.28,4.18,10.09,5.27,10.14C26.39,37.9,23.08,28,23.08,28c1.14,5.59,3.67,9.44,4.4,10s1-.71,1.25-1.49.05-1.82.43-1.85c.19,0,.95,1.77,1.87,1.85s1.2-1.2,1.06-3-1-2.71-2.17-2.58-1.74,2.28-.9,2.31c2.15-.33,5.76-3.94,5.76-3.94"/></g></g></svg>