<svg width="30" height="30" viewBox="0 0 30 30" fill="none" xmlns="http://www.w3.org/2000/svg">
<path d="M22.5291 2.01176C20.2311 0.670501 17.7212 0 15 0C12.2784 0 9.76857 0.670501 7.47051 2.01176C5.17245 3.35308 3.35276 5.17276 2.01176 7.47051C0.670501 9.76883 0 12.2787 0 15C0 18.0338 0.826471 20.7877 2.48035 23.2614C4.13391 25.7358 6.30169 27.5649 8.98427 28.7495C8.93195 27.3563 9.01664 26.2042 9.23819 25.2928L11.1717 17.1288C10.8461 16.4909 10.6835 15.6967 10.6835 14.746C10.6835 13.6393 10.9634 12.7146 11.5233 11.9727C12.0828 11.2303 12.7666 10.859 13.574 10.859C14.2248 10.859 14.7264 11.0736 15.078 11.5038C15.4296 11.9334 15.6055 12.4739 15.6055 13.1248C15.6055 13.5286 15.5304 14.0203 15.381 14.5995C15.2311 15.179 15.0358 15.8494 14.7952 16.6113C14.5542 17.3728 14.3818 17.9814 14.2775 18.4373C14.0949 19.2314 14.2448 19.9117 14.7267 20.4783C15.2082 21.0447 15.8464 21.3278 16.6408 21.3278C18.0341 21.3278 19.1767 20.5533 20.0687 19.0038C20.9606 17.4542 21.4065 15.5727 21.4065 13.3589C21.4065 11.6534 20.8566 10.2664 19.7562 9.19877C18.6559 8.13138 17.1224 7.59722 15.1566 7.59722C12.9558 7.59722 11.1752 8.30387 9.81483 9.71615C8.4542 11.1291 7.77385 12.8188 7.77385 14.7843C7.77385 15.9563 8.1061 16.9396 8.76992 17.7338C8.99121 17.9943 9.06285 18.274 8.98484 18.5733C8.95852 18.6516 8.90657 18.8468 8.82856 19.1591C8.7506 19.4714 8.69828 19.6736 8.67228 19.7646C8.56795 20.1815 8.32071 20.3118 7.92983 20.1552C6.92713 19.7385 6.1653 19.0161 5.64477 17.9873C5.12391 16.9589 4.86362 15.7676 4.86362 14.4133C4.86362 13.5409 5.00343 12.6685 5.28336 11.796C5.56328 10.9236 5.99918 10.0807 6.59203 9.26653C7.18421 8.45337 7.89403 7.73345 8.72112 7.10859C9.54791 6.48341 10.5538 5.98255 11.7388 5.60431C12.9235 5.22705 14.1998 5.03813 15.567 5.03813C17.4159 5.03813 19.0762 5.44834 20.5474 6.26844C22.0186 7.0889 23.1419 8.15029 23.9166 9.45223C24.6911 10.7542 25.0788 12.1472 25.0788 13.6321C25.0788 15.5852 24.74 17.3431 24.0632 18.9057C23.3861 20.4683 22.4289 21.6954 21.1919 22.5872C19.9546 23.479 18.5483 23.925 16.973 23.925C16.1786 23.925 15.4364 23.7396 14.7464 23.3683C14.0559 22.9971 13.5807 22.5577 13.3204 22.0498C12.7345 24.3542 12.383 25.7286 12.2657 26.1708C12.0181 27.0955 11.5103 28.1629 10.7421 29.3739C12.1354 29.7905 13.5546 29.9987 15 29.9987C17.7212 29.9987 20.2311 29.3283 22.5291 27.9873C24.8271 26.6459 26.6468 24.8263 27.9882 22.5279C29.3291 20.2298 30 17.7203 30 14.9987C30 12.2771 29.3291 9.76764 27.9882 7.46927C26.6471 5.17276 24.8271 3.35308 22.5291 2.01176Z" fill="#F3CCCC"/>
</svg>
