<svg xmlns="http://www.w3.org/2000/svg" viewBox="0 0 64.27 56.42"><defs><style>.cls-1{fill:none;stroke:#231f20;stroke-linecap:round;stroke-linejoin:round;stroke-width:1.42px;}</style></defs><g id="Layer_2" data-name="Layer 2"><g id="Layer_1-2" data-name="Layer 1"><path class="cls-1" d="M3.1,7.39l11.34.33a2.64,2.64,0,0,0,2.09-.65c.09-.1.6-.64.42-1s-.62-.36-.95-.3a1.55,1.55,0,0,0-1,.78c-.67,1.08-.19,3.53,1.13,5.25a7.44,7.44,0,0,0,8,2.57,7.37,7.37,0,0,0,4.83-6c.32-2.19-.28-5.14-2.5-6.69A6.92,6.92,0,0,0,22,.74c-1,0-5,.21-6,2.74a4.07,4.07,0,0,0,.12,2.93"/><path class="cls-1" d="M61.86,28.2l-8.6-.09a8.76,8.76,0,0,1-.89-.06c-.85-.11-1.94-.25-2.07-.74a.77.77,0,0,1,.54-.81c.54-.13,1.14.65,1.34,1,.9,1.48-.08,4-1.34,5.55a7.35,7.35,0,0,1-6.76,2.6,7.2,7.2,0,0,1-5.87-5.91,7.48,7.48,0,0,1,7.43-8.33c.84,0,4.18.2,5.51,2.77a5.08,5.08,0,0,1,.4,3.27"/><path class="cls-1" d="M.71,49.76s11.34-.84,14.09-.66c1.49.32,2.09,1.5,1.43,1.91a2.19,2.19,0,0,1-2.8-1.49C13,48,13.66,45,16.5,43.31s8.87-.38,10.54,3.93-.77,7.6-4.6,8.25-7-.06-8.3-3.88"/><line class="cls-1" x1="34" y1="28.57" x2="4.17" y2="28.57"/><path class="cls-1" d="M33.33,7.39s12.36-.07,16.12,0l14.11.31"/><line class="cls-1" x1="32.66" y1="49.25" x2="62.75" y2="49.25"/></g></g></svg>